<?xml version="1.0" encoding="UTF-8" standalone="no"?>
<svg xmlns="http://www.w3.org/2000/svg" viewBox="0 0 174.91 103.6">
<path fill="#273691" d="M35.52,64.59V31.88H21.36V21.49h40.2V31.88H47.4V64.59Z"/>
<path fill="#ed1c24" d="M108.47,42.46c0,17.75-7.48,23-21.4,23s-21.46-5.26-21.46-23c0-17.44,7.48-22,21.46-22S108.47,25,108.47,42.46Zm-12.62.12c0-10.33-.87-11.19-8.78-11.19s-8.84.87-8.84,11.19c0,10.95.87,12.06,8.84,12.06S95.85,53.52,95.85,42.58Z"/>
<path fill="#231f20" d="M116.06,64.59V21.49h25.67c8.6,0,11.69,6.18,11.69,15.52,0,8.16-4,14.9-11.69,14.9H127.88V64.59Zm21.09-22.26c1.79,0,3.34-1.11,3.34-5.32s-1.24-5.44-3.28-5.44h-9.34V42.33Z"/>
<g fill="#231f20">
<path d="M24.29,74.94H22l.16-1.32h6.09l-.16,1.32H25.88l-.86,7H23.43Z"/>
<path d="M34.15,80.72l-.09,1.21a3.25,3.25,0,0,1-.88.09c-.87,0-1.14-.54-1.06-1.22l.27-2.3c.09-.76-.15-1.27-.78-1.27s-1.17.77-1.3,1.51l-.4,3.21H28.38L29.47,73H31l-.48,4h0a1.92,1.92,0,0,1,1.74-1.07c1.32,0,1.86,1,1.69,2.38l-.26,2.14c0,.2.06.33.24.33A.77.77,0,0,0,34.15,80.72Z"/>
<path d="M40.54,78.31a3.33,3.33,0,0,1-.16,1H36.8c0,.91.42,1.5,1.33,1.5a1.86,1.86,0,0,0,1.46-.71l.62.84A2.87,2.87,0,0,1,37.81,82a2.35,2.35,0,0,1-2.52-2.6c0-2.07,1.29-3.51,3.12-3.51A2.12,2.12,0,0,1,40.54,78.31Zm-3.65.15h2.26c0-.07,0-.15,0-.24,0-.69-.3-1.12-.89-1.12S37.08,77.61,36.88,78.47Z"/>
<path d="M51.72,77.12c0,3-1.81,4.9-4.18,4.9-1.9,0-3.13-1.34-3.13-3.59,0-3,1.82-4.9,4.18-4.9C50.49,73.53,51.72,74.88,51.72,77.12Zm-1.62.15c0-1.46-.67-2.35-1.68-2.35-1.31,0-2.39,1.32-2.39,3.37,0,1.46.67,2.36,1.69,2.36C49,80.65,50.1,79.33,50.1,77.27Z"/>
<path d="M58.61,78.45c0,2.28-1.3,3.57-2.85,3.57a1.51,1.51,0,0,1-1.46-.87l-.41,3.36H52.35l1-8.53,1.22,0a6.58,6.58,0,0,1,0,1.25h0a2.14,2.14,0,0,1,1.93-1.27C57.86,75.92,58.61,76.91,58.61,78.45Zm-1.57.2c0-.88-.36-1.45-1-1.45s-1.31.82-1.41,1.56l-.07.55c0,.69.31,1.42,1.1,1.42S57,79.88,57,78.65Z"/>
<path d="M65.53,78.45c0,2.28-1.3,3.57-2.85,3.57a1.51,1.51,0,0,1-1.46-.87l-.41,3.36H59.27l1-8.53,1.22,0a6.58,6.58,0,0,1,0,1.25h0a2.14,2.14,0,0,1,1.93-1.27C64.78,75.92,65.53,76.91,65.53,78.45Zm-1.57.2c0-.88-.36-1.45-1-1.45s-1.31.82-1.41,1.56l-.07.55c0,.69.31,1.42,1.1,1.42S64,79.88,64,78.65Z"/>
<path d="M72.2,78.54A3.18,3.18,0,0,1,69,82a2.34,2.34,0,0,1-2.45-2.61,3.2,3.2,0,0,1,3.2-3.5A2.36,2.36,0,0,1,72.2,78.54Zm-1.56.11c0-.86-.38-1.47-1-1.47-.89,0-1.48.95-1.48,2.13,0,.85.37,1.45,1,1.45C70,80.76,70.64,79.84,70.64,78.65Z"/>
<path d="M77.5,76.07l-.59,1.5a.9.9,0,0,0-.58-.19c-.56,0-1.12.51-1.27,1.5l-.38,3.07H73.14l.73-6,1.21,0a6.71,6.71,0,0,1,0,1.34h0a1.77,1.77,0,0,1,1.6-1.37A1.89,1.89,0,0,1,77.5,76.07Z"/>
<path d="M80.23,79.48c-.1.85.13,1.24.72,1.24a1.44,1.44,0,0,0,.9-.33l.29,1.21A3.12,3.12,0,0,1,80.5,82c-1.39,0-2-.84-1.8-2.48L79,77.17h-.81L78.32,76h.87l.21-1.7,1.48-.06L80.66,76h1.87l-.15,1.18H80.51Z"/>
<path d="M88.45,80.76a.66.66,0,0,0,.2,0l-.08,1.2a3.09,3.09,0,0,1-.75.09c-.83,0-1.17-.36-1.11-1.11h0A1.91,1.91,0,0,1,84.93,82c-1.3,0-1.86-1-1.69-2.38L83.69,76h1.54l-.42,3.44c-.1.76.14,1.27.77,1.27s1.14-.84,1.24-1.57L87.21,76h1.53l-.54,4.36C88.17,80.64,88.26,80.76,88.45,80.76Z"/>
<path d="M95.63,80.72l-.1,1.21a3.21,3.21,0,0,1-.88.09,1,1,0,0,1-1.06-1.22l.27-2.3c.09-.76-.15-1.27-.77-1.27s-1.21.84-1.32,1.57l-.39,3.14H89.85l.73-6,1.21,0a6.71,6.71,0,0,1,0,1.29h0a2.07,2.07,0,0,1,1.9-1.32c1.3,0,1.85,1,1.68,2.38l-.26,2.14c0,.2.07.33.25.33A.83.83,0,0,0,95.63,80.72Z"/><path d="M99,75.94l-.57,4.59c0,.16.07.23.19.23a.68.68,0,0,0,.19,0l-.08,1.2a2.89,2.89,0,0,1-.84.09c-.84,0-1.12-.46-1-1.14l.6-4.89Zm.46-2A1.1,1.1,0,0,1,98.35,75a.84.84,0,0,1-.87-.86,1.11,1.11,0,0,1,1.12-1.08A.85.85,0,0,1,99.47,74Z"/>
<path d="M102.12,79.48c-.1.85.13,1.24.72,1.24a1.44,1.44,0,0,0,.9-.33L104,81.6a3.12,3.12,0,0,1-1.64.42c-1.39,0-2-.84-1.8-2.48l.29-2.37h-.81l.15-1.18h.87l.21-1.7,1.48-.06L102.55,76h1.87l-.15,1.18H102.4Z"/>
<path d="M107.22,75.94l-.57,4.59c0,.16.07.23.19.23a.68.68,0,0,0,.19,0l-.08,1.2a2.89,2.89,0,0,1-.84.09c-.84,0-1.12-.46-1-1.14l.6-4.89Zm.46-2A1.1,1.1,0,0,1,106.55,75a.84.84,0,0,1-.87-.86,1.11,1.11,0,0,1,1.12-1.08A.85.85,0,0,1,107.68,74Z"/>
<path d="M113.5,78.31a3.33,3.33,0,0,1-.16,1h-3.58c0,.91.42,1.5,1.33,1.5a1.86,1.86,0,0,0,1.46-.71l.62.84A2.87,2.87,0,0,1,110.77,82a2.35,2.35,0,0,1-2.52-2.6c0-2.07,1.29-3.51,3.12-3.51A2.12,2.12,0,0,1,113.5,78.31Zm-3.65.15h2.26c0-.07,0-.15,0-.24,0-.69-.3-1.12-.89-1.12S110,77.61,109.84,78.47Z"/>
<path d="M117.9,77.72a.68.68,0,0,0-.76-.71c-.57,0-.88.33-.88.76,0,1.1,2.81.33,2.81,2.29,0,1.21-1,2-2.54,2a2.77,2.77,0,0,1-2.36-.89l.84-1a2.36,2.36,0,0,0,1.61.72c.58,0,.87-.25.87-.62,0-.92-2.68-.42-2.68-2.31,0-1.23,1-2.06,2.52-2.06,1.2,0,2,.64,2,1.52a2.26,2.26,0,0,1-.09.57l-1.37.08A1.11,1.11,0,0,0,117.9,77.72Z"/>
<path d="M129.51,76.11a3.1,3.1,0,0,1-3.28,3.33h-1.28l-.31,2.51H123l1-8.33h2.67C128.49,73.62,129.51,74.48,129.51,76.11Zm-1.62.18a1.28,1.28,0,0,0-1.46-1.39h-.92l-.4,3.27h1A1.68,1.68,0,0,0,127.89,76.28Z"/>
<path d="M135.73,80.76a.7.7,0,0,0,.19,0l-.09,1.2a3.06,3.06,0,0,1-.75.09c-.84,0-1.18-.37-1.11-1.13A2,2,0,0,1,132.13,82c-1.2,0-2.05-.94-2.05-2.57,0-2.07,1.13-3.54,2.79-3.54a1.56,1.56,0,0,1,1.6,1.27h0a6.19,6.19,0,0,1,.33-1.2H136l-.54,4.36C135.45,80.64,135.52,80.76,135.73,80.76Zm-1.62-1.62h0V79l0-.23h0c.1-.76-.26-1.58-1.06-1.58s-1.43.87-1.43,2.09c0,.87.37,1.45,1,1.45S134,79.87,134.1,79.14Z"/>
<path d="M141.49,76.07l-.59,1.5a.9.9,0,0,0-.58-.19c-.56,0-1.12.51-1.27,1.5l-.38,3.07h-1.53l.73-6,1.21,0a6.71,6.71,0,0,1,0,1.34h0a1.77,1.77,0,0,1,1.6-1.37A1.89,1.89,0,0,1,141.49,76.07Z"/>
<path d="M144.22,79.48c-.1.85.13,1.24.72,1.24a1.44,1.44,0,0,0,.9-.33l.29,1.21a3.12,3.12,0,0,1-1.64.42c-1.39,0-2-.84-1.8-2.48l.29-2.37h-.81L142.3,76h.87l.21-1.7,1.48-.06L144.64,76h1.87l-.15,1.18H144.5Z"/>
<path d="M152.74,76,152,81.8a3.06,3.06,0,0,1-3.23,2.82,3.28,3.28,0,0,1-2.14-.7l.75-1.11a2.16,2.16,0,0,0,1.46.62,1.66,1.66,0,0,0,1.72-1.64l.11-.87h0A1.92,1.92,0,0,1,148.93,82c-1.31,0-1.86-1-1.69-2.38l.45-3.66h1.54l-.42,3.45c-.1.76.14,1.27.77,1.27s1.1-.78,1.23-1.49l.4-3.23Z"/>
</g>
</svg>
