<svg width="20" height="15" viewBox="0 0 20 15" fill="none" xmlns="http://www.w3.org/2000/svg">
<rect width="20" height="15" fill="#E5E5E5"/>
<g id="Frame 5" clip-path="url(#clip0_0_1)">
<rect width="1920" height="4432" transform="translate(-1252 -4321)" fill="#020A18"/>
<g id="Footer">
<g id="Rectangle 53" opacity="0.05" filter="url(#filter0_b_0_1)">
<rect x="-1252" y="-139" width="1921" height="250" rx="10" fill="url(#paint0_linear_0_1)"/>
</g>
<g id="Frame 418">
<g id="footer__about">
<g id="Frame 418_2">
<g id="Frame 83" opacity="0.6">
<g id="Group 80">
<path id="Vector" d="M19.0138 2.9799C18.9166 2.59162 18.7187 2.23586 18.44 1.94856C18.1613 1.66125 17.8118 1.45258 17.4266 1.34362C16.0194 1 10.3906 1 10.3906 1C10.3906 1 4.76183 1 3.35463 1.37634C2.96949 1.48531 2.61992 1.69398 2.34124 1.98128C2.06255 2.26858 1.86462 2.62434 1.76744 3.01262C1.5099 4.44073 1.38392 5.88945 1.39109 7.34058C1.38191 8.80263 1.5079 10.2624 1.76744 11.7013C1.87458 12.0775 2.07694 12.4197 2.35498 12.6949C2.63301 12.97 2.97732 13.1689 3.35463 13.2721C4.76183 13.6484 10.3906 13.6484 10.3906 13.6484C10.3906 13.6484 16.0194 13.6484 17.4266 13.2721C17.8118 13.1631 18.1613 12.9545 18.44 12.6672C18.7187 12.3799 18.9166 12.0241 19.0138 11.6358C19.2694 10.2185 19.3953 8.78078 19.3902 7.34058C19.3993 5.87853 19.2734 4.41876 19.0138 2.9799V2.9799Z" stroke="white" stroke-linecap="round" stroke-linejoin="round"/>
<path id="Vector_2" d="M8.5498 10.0157L13.2541 7.34035L8.5498 4.66504V10.0157Z" stroke="white" stroke-linecap="round" stroke-linejoin="round"/>
</g>
</g>
</g>
</g>
</g>
</g>
</g>
<defs>
<filter id="filter0_b_0_1" x="-1452" y="-339" width="2321" height="650" filterUnits="userSpaceOnUse" color-interpolation-filters="sRGB">
<feFlood flood-opacity="0" result="BackgroundImageFix"/>
<feGaussianBlur in="BackgroundImageFix" stdDeviation="100"/>
<feComposite in2="SourceAlpha" operator="in" result="effect1_backgroundBlur_0_1"/>
<feBlend mode="normal" in="SourceGraphic" in2="effect1_backgroundBlur_0_1" result="shape"/>
</filter>
<linearGradient id="paint0_linear_0_1" x1="-291.5" y1="-243.756" x2="-291.5" y2="511.591" gradientUnits="userSpaceOnUse">
<stop stop-color="white" stop-opacity="0.2"/>
<stop offset="1" stop-color="white"/>
</linearGradient>
<clipPath id="clip0_0_1">
<rect width="1920" height="4432" fill="white" transform="translate(-1252 -4321)"/>
</clipPath>
</defs>
</svg>
